<svg width="48" height="48" viewBox="0 0 48 48" fill="none" xmlns="http://www.w3.org/2000/svg">
<rect width="48" height="48" fill="white"/>
<path d="M30.1553 24.1257C30.0977 23.7066 29.9353 22.2712 29.9196 21.8521C29.9196 21.103 29.9562 20.3539 30.0348 19.61C30.061 19.3324 30.1867 19.0757 30.3806 18.8766C30.5796 18.6776 30.8363 18.5571 31.114 18.5309C32.8217 18.2271 34.4509 17.6037 35.9229 16.6869C36.934 16.0216 37.7617 15.1939 38.0131 13.9576C38.055 13.549 38.0655 13.1404 38.0498 12.7266C38.1127 12.3389 38.1441 11.9513 38.1441 11.5584C38.0603 10.8093 37.7407 10.584 36.9759 10.605C36.2792 10.6731 35.5824 10.6783 34.8857 10.6155C34.1575 10.4426 33.4451 10.2068 32.7536 9.91349C32.675 9.87682 32.6174 9.81395 32.5912 9.73014C32.3817 8.97055 31.8002 8.68767 31.1035 8.61957C30.6582 8.59861 30.2391 8.4205 29.9091 8.11667C29.139 7.4147 28.1542 7.23135 27.1484 7.20516C25.9435 7.16849 24.7386 7.32565 23.5862 7.67139C21.2026 8.40479 19.9454 10.1178 19.4844 12.4909C19.4215 12.8209 19.322 14.4396 19.3272 14.7591M25.1996 9.53107C25.2258 9.51012 25.252 9.48393 25.273 9.46297C25.3306 9.48916 25.383 9.52583 25.4301 9.5625C27.0698 11.2807 28.1175 13.4757 28.4161 15.833C28.4475 16.1474 28.4528 16.4564 28.4318 16.7707C28.4213 17.1898 28.2118 17.5827 27.8765 17.8289C27.2112 18.3475 26.4045 18.6566 25.5611 18.709C24.4348 18.8085 23.298 18.6514 22.2399 18.2428C21.7684 18.0909 21.4122 17.7084 21.276 17.2317C20.9512 16.2102 20.2387 15.4663 19.3377 14.7749C19.3272 14.9949 19.3272 15.2201 19.3429 15.4402C19.6573 18.248 18.5991 20.5582 16.8022 22.617C13.7848 26.0639 11.3122 29.9352 9.4578 34.1103C8.53582 36.1429 7.80242 38.254 7.26809 40.4175C7.2419 40.5328 7.22618 40.6585 7.19999 40.8H23.7014" stroke="black" stroke-width="2" stroke-miterlimit="10"/>
<path d="M40.8576 29.0656C40.6848 28.898 40.491 28.7618 40.2709 28.6675C39.6842 28.3689 39.2285 27.8608 39.0084 27.2374C38.7675 26.6192 38.5055 26.0116 38.275 25.3882C38.1912 25.1367 38.0445 24.9115 37.8402 24.7386C37.6412 24.5657 37.395 24.4557 37.133 24.4138C36.3315 24.2619 35.53 24.1309 34.7233 24.0419C34.2676 24.0209 33.8537 23.7642 33.6337 23.3661C33.1465 22.5489 32.6279 21.7474 32.125 20.9406C32.0726 20.8568 32.015 20.7783 31.9521 20.684C31.2606 20.9406 30.742 21.5169 30.5587 22.2293C30.3386 23.0623 30.2129 23.9161 30.1867 24.7805C30.2234 25.4458 29.9248 26.0849 29.3957 26.4883C27.8922 27.7403 26.9388 29.4114 26.153 31.1768C24.9901 33.9008 24.2095 36.7663 23.8271 39.6999C23.7747 40.0456 23.7433 40.3966 23.7014 40.7424C23.7014 40.7528 23.7119 40.7633 23.7224 40.7947H36.3787C36.3263 40.6533 36.2792 40.5171 36.2215 40.3861C35.572 38.9874 35.09 37.5206 34.7757 36.0067C34.54 34.6604 34.9329 33.8694 36.1901 33.3351C36.7506 33.115 37.3216 32.9422 37.9083 32.8164C38.1074 32.7955 38.3065 32.8164 38.4951 32.8741C39.3804 33.0312 39.7837 32.7745 40.0038 31.9049C40.0195 31.7949 40.0666 31.6901 40.1452 31.6063C40.7895 31.0825 40.7529 30.2548 41.0462 29.579C41.1039 29.4585 40.9781 29.1966 40.8576 29.0656Z" stroke="#B8882C" stroke-width="2" stroke-miterlimit="10"/>
<path d="M30.5268 12.8C30.1475 12.8 29.8095 12.5686 29.6693 12.2216C29.5292 11.8745 29.6034 11.4696 29.8754 11.2051C30.1393 10.9407 30.5433 10.8581 30.8895 11.0068C31.2358 11.1473 31.4667 11.4944 31.4667 11.8662C31.4667 12.1141 31.3677 12.3538 31.1946 12.5273C31.0132 12.7009 30.7741 12.8 30.5268 12.8Z" fill="black"/>
<path d="M35.1977 28.6666C34.8168 28.6666 34.4773 28.4352 34.3366 28.0881C34.1958 27.7411 34.2703 27.3361 34.5353 27.0717C34.8003 26.8073 35.206 26.7246 35.5537 26.8734C35.9015 27.0139 36.1333 27.3609 36.1333 27.7328C36.1333 27.9807 36.034 28.2204 35.8601 28.3939C35.6862 28.5674 35.4461 28.6666 35.1977 28.6666Z" fill="black"/>
</svg>
