<svg width="48" height="48" viewBox="0 0 48 48" fill="none" xmlns="http://www.w3.org/2000/svg">
<rect width="48" height="48" fill="white"/>
<g clip-path="url(#clip0_523_2282)">
<path d="M39.888 22.608L24.4896 10.656C24.1824 10.416 23.808 10.416 23.5008 10.656L8.0976 22.608C7.7568 22.8816 7.6896 23.3952 7.9632 23.736C8.2368 24.0767 8.7504 24.1439 9.0912 23.8703L12.2352 21.4128V36.7055C12.2352 37.1519 12.6096 37.5263 13.056 37.5263H34.9824C35.4288 37.5263 35.8032 37.1519 35.8032 36.7055V21.4511L38.9472 23.9088C39.0816 24.0096 39.2544 24.0816 39.4608 24.0816C39.7008 24.0816 39.9408 23.9807 40.1088 23.7743C40.3008 23.3951 40.2288 22.8816 39.888 22.608ZM34.1184 35.9183H13.8336V20.184L23.976 12.2928L34.1184 20.184V35.9183Z" fill="black"/>
<path d="M22.7808 18.3455L18.48 22.1375C18.1056 22.4783 17.8656 22.9919 17.8656 23.5055V32.8607C17.8656 33.8495 18.6864 34.6703 19.6752 34.6703H28.3152C29.304 34.6703 30.1248 33.8495 30.1248 32.8607V23.4719C30.1248 22.9583 29.8848 22.4495 29.5104 22.1039L25.1712 18.3455C24.4896 17.7647 23.4624 17.7647 22.7808 18.3455ZM28.4832 23.2655C28.5504 23.3327 28.584 23.3999 28.584 23.4719V32.8655C28.584 33.0383 28.4496 33.1727 28.2768 33.1727H19.6704C19.4976 33.1727 19.3632 33.0383 19.3632 32.8655V23.4719C19.3632 23.4047 19.3968 23.2991 19.464 23.2655L23.7648 19.4735C23.832 19.4399 23.8992 19.4063 23.9712 19.4063C24.0384 19.4063 24.1056 19.4399 24.1776 19.4735L28.4832 23.2655Z" fill="#B8882C"/>
<path d="M24.9648 22.3104C24.9648 22.8576 24.5232 23.2992 23.976 23.2992C23.4288 23.2992 22.9872 22.8576 22.9872 22.3104C22.9872 21.7632 23.4288 21.3216 23.976 21.3216C24.5232 21.3168 24.9648 21.7632 24.9648 22.3104Z" fill="black"/>
<path d="M24.5904 24.8016C24.5904 24.6288 24.456 24.528 24.3168 24.528H23.6352C23.4624 24.528 23.3616 24.6624 23.3616 24.8016V25.3488C22.608 25.5216 22.0656 26.136 21.9936 26.8848C21.96 27.3984 22.0944 27.8736 22.44 28.2528C22.7808 28.6272 23.2608 28.8336 23.736 28.8336H24.2496C24.384 28.8336 24.5232 28.9008 24.624 29.0064C24.7248 29.1072 24.7584 29.2464 24.7584 29.4144C24.7248 29.688 24.4848 29.8608 24.2112 29.8608H23.6304C23.496 29.8608 23.3568 29.76 23.3232 29.6208C23.2896 29.4864 23.1888 29.4144 23.0496 29.4144H22.368C22.3008 29.4144 22.1952 29.448 22.1616 29.5152C22.0944 29.5824 22.0944 29.6496 22.0944 29.7216C22.1616 30.4032 22.7088 30.984 23.3904 31.0896V31.632C23.3904 31.8048 23.5248 31.9056 23.664 31.9056H24.3456C24.5184 31.9056 24.6192 31.7712 24.6192 31.632V31.0848C25.4736 30.912 26.088 30.096 25.9872 29.208C25.8864 28.32 25.0992 27.6384 24.1776 27.6384H23.7312C23.5968 27.6384 23.4576 27.5712 23.3568 27.4656C23.256 27.3648 23.2224 27.2256 23.2224 27.0576C23.256 26.784 23.496 26.6112 23.7696 26.6112H24.3504C24.4848 26.6112 24.624 26.712 24.6576 26.8512C24.6912 26.9856 24.792 27.0576 24.9312 27.0576H25.6128C25.68 27.0576 25.7856 27.024 25.8192 26.9568C25.8864 26.8896 25.8864 26.8224 25.8864 26.7504C25.8192 26.0688 25.272 25.488 24.5904 25.3824V24.8016Z" fill="black"/>
</g>
<defs>
<clipPath id="clip0_523_2282">
<rect width="33.6" height="33.6" fill="white" transform="translate(7.2 7.19995)"/>
</clipPath>
</defs>
</svg>
