<svg width="60" height="60" viewBox="0 0 60 60" fill="none" xmlns="http://www.w3.org/2000/svg">
<rect width="60" height="60" fill="white"/>
<path d="M45.1266 38.5148C44.2898 37.2844 43.1168 36.3492 41.7387 35.7996L35.7176 33.4207C37.2926 31.8867 38.2031 29.7785 38.2031 27.5391C38.2031 26.6531 38.0637 25.7918 37.793 24.9715C38.0473 24.8238 38.2031 24.5613 38.2031 24.2578V21.7477L39.6387 18.8848L41.0332 18.1875C41.3121 18.048 41.4844 17.7609 41.4844 17.4574V14.9883C41.4844 14.6355 41.2547 14.3238 40.9266 14.209L38.5887 13.4297L32.9531 9.16406C32.8137 9.05742 32.6332 9 32.4609 9H27.5391C27.3586 9 27.1863 9.05742 27.0469 9.16406L21.4113 13.4297L19.0816 14.209C18.7453 14.3238 18.5238 14.6355 18.5238 14.9883V17.4492C18.5238 17.7609 18.6961 18.0398 18.975 18.1793L20.3695 18.8766L21.8051 21.7395V24.2578C21.8051 24.5531 21.9691 24.8238 22.2152 24.9715C21.9445 25.8 21.8051 26.6613 21.8051 27.5391C21.8051 29.7785 22.7156 31.8867 24.2824 33.4207L18.2613 35.7996C16.8832 36.3492 15.7102 37.2844 14.8734 38.5148C14.0367 39.7453 13.5938 41.1809 13.5938 42.6656V50.1797C13.5938 50.6309 13.9629 51 14.4141 51H29.1797H30.8203H45.5859C46.0371 51 46.4062 50.6309 46.4062 50.1797V42.6656C46.4062 41.1809 45.9633 39.7453 45.1266 38.5148ZM38.3016 36.2016L33.2812 44.5195V42.034C33.2812 41.5008 33.109 40.9758 32.7891 40.5574L31.3371 38.6297C32.0098 38.1867 32.4609 37.432 32.4609 36.5707V35.373C33.068 35.1844 33.6586 34.9219 34.2082 34.5938L38.3016 36.2016ZM21.7066 17.9004C21.6246 17.7445 21.5016 17.6133 21.3375 17.5312L20.1562 16.9406V15.5789L22.0594 14.9473C22.1414 14.9227 22.2234 14.8734 22.2973 14.8242L27.818 10.6406H32.1902L37.7109 14.8242C37.7848 14.8816 37.8586 14.9227 37.9488 14.9473L39.852 15.5789V16.9406L38.6625 17.5312C38.5066 17.6133 38.3754 17.7363 38.2934 17.9004L36.8742 20.7305H23.1258L21.7066 17.9004ZM23.4375 22.3711H36.5625V23.6672L34.4133 24.3727C32.9777 24.8402 31.493 25.0781 29.9836 25.0781C29.2289 25.0781 28.4742 25.0207 27.7277 24.8977C26.9895 24.7746 26.243 24.5941 25.5293 24.3562L23.9461 23.8313C23.8723 23.7492 23.7902 23.6754 23.6836 23.6262C23.6016 23.5852 23.5195 23.5605 23.4293 23.5523V22.3711H23.4375ZM23.4375 27.5391C23.4375 26.8336 23.5441 26.1527 23.7574 25.4965L25.0207 25.9148C25.8246 26.1773 26.6449 26.3824 27.4734 26.5137C28.302 26.6449 29.1469 26.7188 29.9918 26.7188C31.6734 26.7188 33.3305 26.4562 34.9301 25.9312L36.2426 25.5047C36.4559 26.1609 36.5625 26.8418 36.5625 27.5473C36.5625 29.7211 35.4879 31.7555 33.6832 32.9777C33.6668 32.9859 33.6586 32.9941 33.6422 33.0023C32.9777 33.4535 32.2395 33.7652 31.452 33.9457C30.5004 34.159 29.4832 34.159 28.5316 33.9457C27.7441 33.7652 26.9977 33.4453 26.325 32.9941C24.5203 31.7637 23.4375 29.7293 23.4375 27.5391ZM30.8203 35.7012V36.5625C30.8203 37.0137 30.4512 37.3828 30 37.3828C29.7785 37.3828 29.5734 37.3008 29.4176 37.1449C29.2617 36.9891 29.1797 36.784 29.1797 36.5625V35.7012C29.4504 35.7258 29.7293 35.7422 30 35.7422C30.2707 35.7422 30.5496 35.7258 30.8203 35.7012ZM25.7918 34.5773C26.3414 34.9055 26.9238 35.168 27.5391 35.3648V36.5625C27.5391 37.2188 27.7934 37.834 28.2609 38.3016C28.384 38.4246 28.5152 38.5313 28.6629 38.6215L27.2109 40.5574C26.891 40.984 26.7188 41.5008 26.7188 42.034V44.5195L21.6984 36.2016L25.7918 34.5773ZM15.2344 49.3594V42.6656C15.2344 40.2949 16.6617 38.2031 18.8602 37.3254L20.148 36.8168L26.7598 47.7762L27.7195 49.3594H15.2344ZM31.6406 47.2348L30.3609 49.3594H29.6473L28.3594 47.2348V42.034C28.3594 41.8535 28.4168 41.6813 28.5234 41.5418L30 39.573L31.4766 41.5418C31.5832 41.6813 31.6406 41.8535 31.6406 42.034V47.2348ZM32.2723 49.3594L39.8438 36.8168L41.1316 37.3254C43.3383 38.1949 44.7574 40.2949 44.7574 42.6656V49.3594H32.2723Z" fill="black"/>
<path d="M30 12.5273C28.1871 12.5273 26.7188 13.9957 26.7188 15.8086C26.7188 17.6215 28.1871 19.0898 30 19.0898C31.8129 19.0898 33.2812 17.6215 33.2812 15.8086C33.2812 13.9957 31.8129 12.5273 30 12.5273ZM30 17.4492C29.0977 17.4492 28.3594 16.7109 28.3594 15.8086C28.3594 14.9062 29.0977 14.168 30 14.168C30.9023 14.168 31.6406 14.9062 31.6406 15.8086C31.6406 16.7109 30.9023 17.4492 30 17.4492Z" fill="#B8882C"/>
</svg>
