<svg width="48" height="48" viewBox="0 0 48 48" fill="none" xmlns="http://www.w3.org/2000/svg">
<rect width="48" height="48" fill="white"/>
<path d="M42.0689 18.094H22.4841L14.0563 7.6007C13.6944 7.14841 13.031 7.07303 12.5787 7.43487C12.1264 7.7967 12.051 8.46007 12.4129 8.91241L19.7853 18.094H5.05536C4.46737 18.094 4 18.5614 4 19.1494V27.8787C4 28.4667 4.46737 28.9341 5.05536 28.9341H28.4846L37.0481 39.6084C37.2591 39.8647 37.5607 40.0004 37.8773 40.0004C38.1034 40.0004 38.3447 39.925 38.5407 39.7742C38.993 39.4124 39.0683 38.749 38.7065 38.2967L31.1983 28.9493H42.0535C42.6415 28.9493 43.1088 28.4819 43.1088 27.8939V19.1646C43.1239 18.5615 42.6418 18.094 42.0689 18.094ZM10.3622 26.8234H6.11056V20.2047H10.3622V26.8234ZM12.4729 26.8234V20.2047H21.4736L26.7956 26.8234H12.4729ZM29.4937 26.8234L24.1717 20.2047H34.6952V26.8234H29.4937ZM38.0723 26.8234H36.8058V20.2047H38.0723V26.8234ZM41.0122 26.8234H40.183V20.2047H40.9971V26.8234H41.0122Z" fill="#666666"/>
<path d="M38.2382 12.1691C39.6404 12.7873 40.1379 13.0888 40.168 14.0688C40.1831 14.6417 40.6505 15.094 41.2234 15.094H41.2536C41.8415 15.0789 42.2938 14.5964 42.2788 14.0085C42.2034 11.6112 40.4093 10.8273 39.0825 10.2393C37.7556 9.65123 36.9416 9.24421 36.6552 8.02303C36.5195 7.45012 35.9617 7.10335 35.3887 7.22396C34.8158 7.35965 34.4691 7.91748 34.5897 8.4904C35.1324 10.7971 36.9265 11.5961 38.2382 12.1691Z" fill="#B8882C"/>
<path d="M33.9871 13.0294C35.5099 13.8134 36.3844 14.326 36.5502 15.6377C36.6105 16.1654 37.0779 16.5574 37.5905 16.5574C37.6357 16.5574 37.6809 16.5574 37.7262 16.5423C38.2991 16.4669 38.7061 15.9393 38.6458 15.3663C38.3292 12.8937 36.5352 11.959 34.952 11.1449C33.5499 10.4212 32.3287 9.788 31.8161 8.15977C31.6352 7.60193 31.0472 7.3004 30.4894 7.48132C29.9315 7.66223 29.63 8.25022 29.8109 8.80806C30.5798 11.2655 32.4644 12.2455 33.9871 13.0294Z" fill="#B8882C"/>
</svg>
